<?xml version="1.0" encoding="utf-8"?>
<!-- Generator: Adobe Illustrator 24.2.1, SVG Export Plug-In . SVG Version: 6.00 Build 0)  -->
<svg version="1.1" id="Layer_1" xmlns="http://www.w3.org/2000/svg" xmlns:xlink="http://www.w3.org/1999/xlink" x="0px" y="0px"
	 viewBox="0 0 512 512" style="enable-background:new 0 0 512 512;" xml:space="preserve">
<style type="text/css">
	.st0{fill:none;}
	.st1{fill:#66391B;stroke:#000000;stroke-miterlimit:10;}
	.st2{font-family:'BerlinSansFBDemi-Bold';}
	.st3{font-size:150px;}
</style>
<g>
	<g>
		<path d="M95.2,150.5c-6,0-10.8,4.8-10.8,10.8c0,6,4.8,10.8,10.8,10.8c6,0,10.8-4.8,10.8-10.8C106,155.3,101.2,150.5,95.2,150.5z"
			/>
	</g>
</g>
<g>
	<g>
		<path d="M95.2,120.1c-22.7,0-41.2,18.5-41.2,41.2s18.5,41.2,41.2,41.2s41.2-18.5,41.2-41.2S117.9,120.1,95.2,120.1z M95.2,183
			c-12,0-21.7-9.7-21.7-21.7c0-12,9.7-21.7,21.7-21.7c12,0,21.7,9.7,21.7,21.7C116.9,173.2,107.2,183,95.2,183z"/>
	</g>
</g>
<g>
	<g>
		<path d="M400.7,149.2c-25.7-26-59.9-40.3-96.4-40.3h-26.9c-6,0-10.8,4.8-10.8,10.8s4.8,10.8,10.8,10.8h26.9
			c30.6,0,59.4,12,81,33.9c2.1,2.1,4.9,3.2,7.7,3.2c2.7,0,5.5-1,7.6-3.1C404.8,160.3,404.8,153.5,400.7,149.2z"/>
	</g>
</g>
<g>
	<g>
		<path d="M501.2,233.5h-27.3c-5.6-88.7-79.5-159.1-169.6-159.1h-43.4c-20.1,0-39.6,3.4-58.2,10.2V61.5c0-13-10.6-23.6-23.6-23.6
			c-1,0-2,0.1-3.1,0.2c-34.4,3.9-65.6,20.4-88.4,46.4C44.9,90.8,0,142.3,0,186.5c0,20.4,9.1,35.9,23.3,47H18
			c-6,0-10.8,4.8-10.8,10.8v51c0,6,4.8,10.8,10.8,10.8h112.8l-24.8,24.8c-22.9-4-46.5,3.4-63.1,20c-13.6,13.6-21,32-21,50.9
			c0,6.2,0.8,12.4,2.4,18.5c1,3.7,3.9,6.7,7.6,7.6c6.1,1.6,12.3,2.4,18.5,2.4c18.8,0,37.3-7.4,50.9-21c16.5-16.5,23.9-40.2,20-63.1
			l40-40h238.2c-2.9,17.9-8.6,35.2-17.3,51.6c-13.7,26.2-34.1,48.4-58.9,64.2c-24,15.3-51.8,24.4-80.3,26.3
			c-5.4,0.4-9.6,4.6-10.1,9.9s3.2,10.2,8.4,11.4c13.9,3.1,27.8,4.6,41.6,4.6c69.8,0,135.8-38.6,169.3-102.4
			c10.7-20.5,17.6-42.8,20.4-65.6h28.3c6,0,10.8-4.8,10.8-10.8v-51C512,238.3,507.2,233.5,501.2,233.5z M86.1,394
			C75,405,59.3,410.2,44,408.2c-2-15.4,3.2-31,14.3-42.1s26.8-16.3,42.1-14.3C102.4,367.2,97.2,382.9,86.1,394z M171.4,284.5H28.8
			v-29.4l144.5,0.1l-2.6,9.3C168.8,271.2,169.1,278.1,171.4,284.5z M305.5,284.5h-72.6c0.3-0.7,8.4-29.3,8.4-29.3h66.1l-2.6,9.3
			C302.9,271.2,303.2,278.1,305.5,284.5z M367,284.5c0.3-0.7,8.4-29.3,8.4-29.3h20.8c3,0,5.4,2.4,5.4,5.4c0,0,0.1,23.4,0.1,23.9H367
			z M452.7,281.2c0,0.1,0,0.2,0,0.2c0.3,27.7-6.4,55.5-19.4,80.2c-23.5,44.8-65,75.6-112,86.5c4.7-2.5,9.3-5.2,13.8-8
			c28-17.8,50.9-42.9,66.4-72.4c14.1-27,21.5-56,21.8-86.3c0-0.6-0.1-20.9-0.1-20.9c0-14.9-12.1-27-27-27h-14.7l1.5-5.5
			c4.5-16.1-3.7-33-19.3-39.3c-0.6-0.2-15.8-6.1-15.8-6.1c-5.5-2.2-11.8,0.5-14,6c-2.2,5.5,0.5,11.8,6,14c0,0,16.3,6.5,16.9,6.6
			c4.6,2.4,7,7.7,5.5,12.9L347,276.4c-1.3,4.8-5.7,8.1-10.7,8.1c-1,0-2-0.1-3-0.4c-2.9-0.8-5.2-2.7-6.7-5.3c-1.4-2.6-1.8-5.6-1-8.4
			l9.9-35.2c1.6-5.7-1.7-11.7-7.5-13.3c-5.7-1.6-11.7,1.7-13.3,7.5l-1.2,4.3h-66.1l1.5-5.5c4.6-16.1-3.7-33-19.3-39.3
			c-0.6-0.2-15.9-6.1-15.9-6.1c-5.5-2.2-11.8,0.5-14,6c-2.2,5.5,0.5,11.8,6,14c0,0,16.4,6.5,16.9,6.6c4.6,2.4,7,7.7,5.5,12.9
			l-15.3,54.2c-1.4,4.8-5.7,8.1-10.7,8.1c-1,0-2-0.1-3-0.4c-2.9-0.8-5.2-2.7-6.7-5.3c-1.5-2.6-1.8-5.6-1-8.4l9.9-35.2
			c1.6-5.7-1.7-11.7-7.5-13.3c-5.7-1.6-11.7,1.7-13.3,7.5l-1.2,4.3l-85.9-0.1c-56.6-1.5-71.9-30-71.9-47c0-16.2,8.9-35.8,23.8-52.6
			c14.9-16.7,33-27.4,48.4-28.4c3-0.2,5.7-1.6,7.6-3.9c19.4-23.7,46.8-38.6,77.1-42.1c0.1,0,0.1,0,0.2,0c0.2,0,2.4,0.9,2.4,2v39.3
			c0,3.7,1.9,7.2,5.1,9.1c3.1,2,7.1,2.2,10.4,0.6c20.1-9.7,41.8-14.6,64.3-14.6h43.4c81.8,0,148.4,66.6,148.4,148.4L452.7,281.2
			L452.7,281.2z M490.4,284.5h-16.2c0-1,0-29.4,0-29.4h16.1V284.5z"/>
	</g>
</g>
<g>
	<g>
		<path d="M95.2,150.5c-6,0-10.8,4.8-10.8,10.8c0,6,4.8,10.8,10.8,10.8c6,0,10.8-4.8,10.8-10.8C106,155.3,101.2,150.5,95.2,150.5z"
			/>
	</g>
</g>
<g id="SVGCleanerId_1">
	<g>
		<path d="M95.2,120.1c-22.7,0-41.2,18.5-41.2,41.2s18.5,41.2,41.2,41.2s41.2-18.5,41.2-41.2S117.9,120.1,95.2,120.1z M95.2,183
			c-12,0-21.7-9.7-21.7-21.7c0-12,9.7-21.7,21.7-21.7c12,0,21.7,9.7,21.7,21.7C116.9,173.2,107.2,183,95.2,183z"/>
	</g>
</g>
<g id="SVGCleanerId_2">
	<g>
		<path d="M400.7,149.2c-25.7-26-59.9-40.3-96.4-40.3h-26.9c-6,0-10.8,4.8-10.8,10.8s4.8,10.8,10.8,10.8h26.9
			c30.6,0,59.4,12,81,33.9c2.1,2.1,4.9,3.2,7.7,3.2c2.7,0,5.5-1,7.6-3.1C404.8,160.3,404.8,153.5,400.7,149.2z"/>
	</g>
</g>
<g>
	<g>
		<path d="M400.7,149.2c-25.7-26-59.9-40.3-96.4-40.3h-26.9c-6,0-10.8,4.8-10.8,10.8s4.8,10.8,10.8,10.8h26.9
			c30.6,0,59.4,12,81,33.9c2.1,2.1,4.9,3.2,7.7,3.2c2.7,0,5.5-1,7.6-3.1C404.8,160.3,404.8,153.5,400.7,149.2z"/>
	</g>
</g>
<g>
	<g>
		<path d="M95.2,150.5c-6,0-10.8,4.8-10.8,10.8c0,6,4.8,10.8,10.8,10.8c6,0,10.8-4.8,10.8-10.8C106,155.3,101.2,150.5,95.2,150.5z"
			/>
	</g>
</g>
<g>
	<g>
		<path d="M95.2,150.5c-6,0-10.8,4.8-10.8,10.8c0,6,4.8,10.8,10.8,10.8c6,0,10.8-4.8,10.8-10.8C106,155.3,101.2,150.5,95.2,150.5z"
			/>
	</g>
</g>
<g>
	<g>
		<path d="M95.2,120.1c-22.7,0-41.2,18.5-41.2,41.2s18.5,41.2,41.2,41.2s41.2-18.5,41.2-41.2S117.9,120.1,95.2,120.1z M95.2,183
			c-12,0-21.7-9.7-21.7-21.7c0-12,9.7-21.7,21.7-21.7c12,0,21.7,9.7,21.7,21.7C116.9,173.2,107.2,183,95.2,183z"/>
	</g>
</g>
<g>
	<g>
		<path d="M95.2,150.5c-6,0-10.8,4.8-10.8,10.8c0,6,4.8,10.8,10.8,10.8c6,0,10.8-4.8,10.8-10.8C106,155.3,101.2,150.5,95.2,150.5z"
			/>
	</g>
</g>
<rect x="109.2" y="316" class="st0" width="452" height="278"/>
<text transform="matrix(1 0 0 1 109.1874 421.748)" class="st1 st2 st3">APA</text>
<rect x="309" y="378" class="st0" width="119" height="8"/>
</svg>
